HIERARCHY
ROOT Hips
{
	OFFSET 0.000000 0.000000 0.000000
	CHANNELS 6 Xposition Yposition Zposition Xrotation Yrotation Zrotation
	JOINT C_ctrl
	{
		OFFSET 0.000000 35.040482 -0.000011
		CHANNELS 3 Xrotation Yrotation Zrotation
		JOINT Bip01
		{
			OFFSET -41.537640 41.789009 -0.000007
			CHANNELS 3 Xrotation Yrotation Zrotation
			JOINT Bip01_Pelvis
			{
				OFFSET -2.462887 0.000000 0.000000
				CHANNELS 3 Xrotation Yrotation Zrotation
				JOINT BN_Tail_01
				{
					OFFSET -11.399368 7.351341 -0.000013
					CHANNELS 3 Xrotation Yrotation Zrotation
					JOINT BN_Tail_02
					{
						OFFSET -11.365196 -0.343025 0.000012
						CHANNELS 3 Xrotation Yrotation Zrotation
						JOINT BN_Tail_03
						{
							OFFSET -15.076256 -0.454979 0.000017
							CHANNELS 3 Xrotation Yrotation Zrotation
							JOINT BN_Tail_04
							{
								OFFSET -17.395691 -0.525002 0.000016
								CHANNELS 3 Xrotation Yrotation Zrotation
								JOINT BN_Tail_05
								{
									OFFSET -16.699837 -0.504005 0.000016
									CHANNELS 3 Xrotation Yrotation Zrotation
									End Site
									{
										OFFSET 0.503998 -16.699829 0.000067
									}
								}
							}
						}
					}
				}
				JOINT Bip01_Spine
				{
					OFFSET 8.297798 5.916809 -0.000020
					CHANNELS 3 Xrotation Yrotation Zrotation
					JOINT Bip01_R_Thigh
					{
						OFFSET -8.297779 -5.916794 10.541781
						CHANNELS 3 Xrotation Yrotation Zrotation
						JOINT Bip01_R_Calf
						{
							OFFSET 5.631542 -22.906792 0.862690
							CHANNELS 3 Xrotation Yrotation Zrotation
							JOINT Bip01_R_HorseLink
							{
								OFFSET -16.984341 -19.231926 -3.555767
								CHANNELS 3 Xrotation Yrotation Zrotation
								JOINT Bip01_R_Foot
								{
									OFFSET 4.290367 -24.783146 0.578056
									CHANNELS 3 Xrotation Yrotation Zrotation
									JOINT Bip01_R_Toe0
									{
										OFFSET 3.561211 -5.815116 0.760802
										CHANNELS 3 Xrotation Yrotation Zrotation
										JOINT Bip01_R_Toe0Nub
										{
											OFFSET 16.135469 0.002017 1.534789
											CHANNELS 3 Xrotation Yrotation Zrotation
											End Site
											{
												OFFSET -0.000002 16.208284 -0.000056
											}
										}
									}
								}
							}
						}
					}
					JOINT Bip01_L_Thigh
					{
						OFFSET -8.297813 -5.916832 -10.541739
						CHANNELS 3 Xrotation Yrotation Zrotation
						JOINT Bip01_L_Calf
						{
							OFFSET 5.631535 -22.906792 -0.862625
							CHANNELS 3 Xrotation Yrotation Zrotation
							JOINT Bip01_L_HorseLink
							{
								OFFSET -16.984318 -19.231949 3.555875
								CHANNELS 3 Xrotation Yrotation Zrotation
								JOINT Bip01_L_Foot
								{
									OFFSET 4.290367 -24.783169 -0.577965
									CHANNELS 3 Xrotation Yrotation Zrotation
									JOINT Bip01_L_Toe0
									{
										OFFSET 3.561245 -5.815111 -0.760799
										CHANNELS 3 Xrotation Yrotation Zrotation
										JOINT Bip01_L_Toe0Nub
										{
											OFFSET 6.574303 -0.000005 -1.538561
											CHANNELS 3 Xrotation Yrotation Zrotation
											End Site
											{
												OFFSET 0.000004 -6.751935 0.000023
											}
										}
									}
								}
							}
						}
					}
					JOINT Bip01_Spine1
					{
						OFFSET 20.556803 -4.626213 -0.000025
						CHANNELS 3 Xrotation Yrotation Zrotation
						JOINT Saddle
						{
							OFFSET 17.608810 18.174690 -0.000143
							CHANNELS 3 Xrotation Yrotation Zrotation
							End Site
							{
								OFFSET -0.000063 -0.000061 -22.448387
							}
						}
						JOINT BN_center
						{
							OFFSET 10.743275 -13.417107 -0.172041
							CHANNELS 3 Xrotation Yrotation Zrotation
							End Site
							{
								OFFSET 22.434088 0.553078 -0.579614
							}
						}
						JOINT Bip01_Spine2
						{
							OFFSET 24.765072 -2.054115 -0.000032
							CHANNELS 3 Xrotation Yrotation Zrotation
							JOINT Handle
							{
								OFFSET 63.735676 16.430748 -16.052464
								CHANNELS 3 Xrotation Yrotation Zrotation
								JOINT IK_Chain01
								{
									OFFSET -4.713058 -6.020439 0.185448
									CHANNELS 3 Xrotation Yrotation Zrotation
									End Site
									{
										OFFSET -0.000023 -0.000023 -7.648071
									}
								}
							}
							JOINT BN_hair04_01
							{
								OFFSET 1.987491 16.256981 -2.049672
								CHANNELS 3 Xrotation Yrotation Zrotation
								JOINT BN_hair04_02
								{
									OFFSET -1.318762 -3.831451 -6.174704
									CHANNELS 3 Xrotation Yrotation Zrotation
									JOINT BN_hair04_03
									{
										OFFSET -0.827490 -5.886627 -5.656666
										CHANNELS 3 Xrotation Yrotation Zrotation
										End Site
										{
											OFFSET -2.658262 5.010620 -5.929780
										}
									}
								}
							}
							JOINT Bip01_Neck
							{
								OFFSET 25.574577 9.433014 -0.000084
								CHANNELS 3 Xrotation Yrotation Zrotation
								JOINT Bip01_R_Clavicle
								{
									OFFSET -16.535652 0.011192 6.705692
									CHANNELS 3 Xrotation Yrotation Zrotation
									JOINT Bip01_R_UpperArm
									{
										OFFSET 20.272621 -12.959984 2.510816
										CHANNELS 3 Xrotation Yrotation Zrotation
										JOINT Bip01_R_Forearm
										{
											OFFSET -13.633509 -15.503704 -0.653585
											CHANNELS 3 Xrotation Yrotation Zrotation
											JOINT Bip01_R_Hand
											{
												OFFSET 2.580030 -27.804676 -1.136415
												CHANNELS 3 Xrotation Yrotation Zrotation
												JOINT Bip01_R_Finger0
												{
													OFFSET -0.281744 -19.659061 -0.398649
													CHANNELS 3 Xrotation Yrotation Zrotation
													JOINT Bip01_Xtra02
													{
														OFFSET 4.152210 -5.712314 0.433813
														CHANNELS 3 Xrotation Yrotation Zrotation
														JOINT Bip01_Xtra02Nub
														{
															OFFSET 15.457960 0.041654 0.507982
															CHANNELS 3 Xrotation Yrotation Zrotation
															End Site
															{
																OFFSET -15.421730 -0.157725 -1.163459
															}
														}
													}
													JOINT Bip01_R_Finger0Nub
													{
														OFFSET 8.362326 -9.718440 -0.143142
														CHANNELS 3 Xrotation Yrotation Zrotation
														End Site
														{
															OFFSET -1.213036 -0.198171 9.872291
														}
													}
												}
											}
										}
									}
								}
								JOINT Bip01_L_Clavicle
								{
									OFFSET -16.535673 0.011162 -6.705583
									CHANNELS 3 Xrotation Yrotation Zrotation
									JOINT Bip01_L_UpperArm
									{
										OFFSET 20.272615 -12.959999 -2.510836
										CHANNELS 3 Xrotation Yrotation Zrotation
										JOINT Bip01_L_Forearm
										{
											OFFSET -13.633495 -15.503681 0.653678
											CHANNELS 3 Xrotation Yrotation Zrotation
											JOINT Bip01_L_Hand
											{
												OFFSET 2.579988 -27.804686 1.136487
												CHANNELS 3 Xrotation Yrotation Zrotation
												JOINT Bip01_L_Finger0
												{
													OFFSET -0.281765 -19.659058 0.398696
													CHANNELS 3 Xrotation Yrotation Zrotation
													JOINT Bip01_Xtra01
													{
														OFFSET 4.083549 -5.738758 -0.666714
														CHANNELS 3 Xrotation Yrotation Zrotation
														JOINT Bip01_Xtra01Nub
														{
															OFFSET 6.758158 -0.395525 -0.023239
															CHANNELS 3 Xrotation Yrotation Zrotation
															End Site
															{
																OFFSET 6.764923 -0.254147 -0.029908
															}
														}
													}
													JOINT Bip01_L_Finger0Nub
													{
														OFFSET -0.012636 -9.629153 0.045740
														CHANNELS 3 Xrotation Yrotation Zrotation
														End Site
														{
															OFFSET 0.988407 0.004791 8.293357
														}
													}
												}
											}
										}
									}
								}
								JOINT BN_hair03_01
								{
									OFFSET -5.894140 16.270622 -2.498433
									CHANNELS 3 Xrotation Yrotation Zrotation
									JOINT BN_hair03_02
									{
										OFFSET -0.189278 -7.800507 -6.219162
										CHANNELS 3 Xrotation Yrotation Zrotation
										JOINT BN_hair03_03
										{
											OFFSET 0.612345 -10.844475 -3.370718
											CHANNELS 3 Xrotation Yrotation Zrotation
											End Site
											{
												OFFSET -2.273296 2.862007 -10.769416
											}
										}
									}
								}
								JOINT Bip01_Neck1
								{
									OFFSET 9.383755 11.908699 -0.000007
									CHANNELS 3 Xrotation Yrotation Zrotation
									JOINT BN_hair02_01
									{
										OFFSET 9.126320 18.808022 -1.420810
										CHANNELS 3 Xrotation Yrotation Zrotation
										JOINT BN_hair02_02
										{
											OFFSET 0.393478 -5.181091 -5.248574
											CHANNELS 3 Xrotation Yrotation Zrotation
											JOINT BN_hair02_03
											{
												OFFSET 0.762280 -8.167076 -0.230047
												CHANNELS 3 Xrotation Yrotation Zrotation
												End Site
												{
													OFFSET -0.025837 -1.251419 -8.109770
												}
											}
										}
									}
									JOINT Bip01_Head
									{
										OFFSET 14.266129 10.475403 -0.000008
										CHANNELS 3 Xrotation Yrotation Zrotation
										JOINT BN_Reins_01
										{
											OFFSET 18.547455 -15.740112 -0.000035
											CHANNELS 3 Xrotation Yrotation Zrotation
											JOINT BN_Reins_02
											{
												OFFSET -5.372810 -5.884506 0.000028
												CHANNELS 3 Xrotation Yrotation Zrotation
												JOINT BN_Reins_03
												{
													OFFSET -6.395866 -15.947449 0.000070
													CHANNELS 3 Xrotation Yrotation Zrotation
													JOINT BN_Halter_R_01
													{
														OFFSET -1.234055 -3.096100 7.096737
														CHANNELS 3 Xrotation Yrotation Zrotation
														End Site
														{
															OFFSET 10.514435 -4.176861 -0.000004
														}
													}
													JOINT BN_Halter_L_01
													{
														OFFSET -1.234062 -3.096146 -7.096726
														CHANNELS 3 Xrotation Yrotation Zrotation
														End Site
														{
															OFFSET -10.514435 4.176865 -0.000000
														}
													}
													JOINT BN_Reins_04
													{
														OFFSET -6.737644 -16.971684 0.000074
														CHANNELS 3 Xrotation Yrotation Zrotation
														JOINT BN_Halter_R_02
														{
															OFFSET -4.688869 -11.781956 7.096771
															CHANNELS 3 Xrotation Yrotation Zrotation
															End Site
															{
																OFFSET 14.669624 -5.827511 -0.000006
															}
														}
														JOINT BN_Halter_L_02
														{
															OFFSET -4.688892 -11.782017 -7.096693
															CHANNELS 3 Xrotation Yrotation Zrotation
															End Site
															{
																OFFSET -14.669624 5.827507 -0.000002
															}
														}
														JOINT BN_Reins_05
														{
															OFFSET -6.822578 -16.971161 0.000074
															CHANNELS 3 Xrotation Yrotation Zrotation
															JOINT BN_Reins_06
															{
																OFFSET -6.140354 -15.095148 0.000066
																CHANNELS 3 Xrotation Yrotation Zrotation
																End Site
																{
																	OFFSET -15.095150 6.140352 -0.000002
																}
															}
														}
													}
												}
											}
										}
										JOINT BN_hair01_01
										{
											OFFSET 8.957344 8.870956 0.112121
											CHANNELS 3 Xrotation Yrotation Zrotation
											JOINT BN_hair01_02
											{
												OFFSET 6.002075 -2.962952 -3.121264
												CHANNELS 3 Xrotation Yrotation Zrotation
												End Site
												{
													OFFSET 5.917702 3.813591 -2.232396
												}
											}
										}
										JOINT BN_Eyebrow_R
										{
											OFFSET 11.795959 -0.430496 4.449781
											CHANNELS 3 Xrotation Yrotation Zrotation
											JOINT Bip01_Xtra06Nub
											{
												OFFSET 2.936661 -0.262573 3.246701
												CHANNELS 3 Xrotation Yrotation Zrotation
												End Site
												{
													OFFSET 2.768745 0.208199 3.394807
												}
											}
										}
										JOINT BN_Eyebrow_L
										{
											OFFSET 11.586395 -0.445618 -4.441728
											CHANNELS 3 Xrotation Yrotation Zrotation
											JOINT Bip01_Xtra05Nub
											{
												OFFSET 3.244698 -0.349442 -4.416700
												CHANNELS 3 Xrotation Yrotation Zrotation
												End Site
												{
													OFFSET 3.053162 0.072495 -4.564033
												}
											}
										}
										JOINT Bip01_R_Ear_01
										{
											OFFSET 7.142960 7.567184 4.311657
											CHANNELS 3 Xrotation Yrotation Zrotation
											JOINT Bip01_Xtra04Nub
											{
												OFFSET 9.464531 9.264214 1.682953
												CHANNELS 3 Xrotation Yrotation Zrotation
												End Site
												{
													OFFSET 8.448181 10.159340 1.910823
												}
											}
										}
										JOINT Bip01__L_Ear_01
										{
											OFFSET 7.214943 7.717056 -4.356771
											CHANNELS 3 Xrotation Yrotation Zrotation
											JOINT Bip01_Xtra03Nub
											{
												OFFSET 9.230225 8.944366 -2.322746
												CHANNELS 3 Xrotation Yrotation Zrotation
												End Site
												{
													OFFSET 8.170288 9.841324 -2.643566
												}
											}
										}
										JOINT Bip01_Jaw
										{
											OFFSET 9.196068 -4.110695 -0.000013
											CHANNELS 3 Xrotation Yrotation Zrotation
											JOINT Bip01_Ponytail1Nub
											{
												OFFSET 10.976463 -21.082108 -0.000053
												CHANNELS 3 Xrotation Yrotation Zrotation
												End Site
												{
													OFFSET 11.247093 -20.938980 0.000113
												}
											}
										}
										JOINT Bip01_HeadNub
										{
											OFFSET 29.954575 -18.249489 -0.000063
											CHANNELS 3 Xrotation Yrotation Zrotation
											End Site
											{
												OFFSET -9.198448 -13.366348 0.000168
											}
										}
									}
								}
							}
						}
					}
				}
			}
		}
	}
}
MOTION
Frames: 5
Frame Time: 0.033333
0.000000 0.000000 0.000000 0.000008 0.000000 -0.000000 -0.000000 0.000000 -0.000000 0.000000 0.000000 -0.000006 0.003491 -0.000000 -0.000008 0.582161 -2.533202 22.722144 -1.423532 3.067918 23.653109 -0.420584 1.153913 21.214248 0.327668 -0.922998 11.725002 0.203947 -1.572312 6.770907 0.143672 0.000484 10.382443 -6.187006 5.666828 -7.202098 0.531247 0.016599 -2.692622 0.031701 0.001724 -0.160767 6.394429 -4.508886 0.251813 0.000729 -0.000020 -0.003715 0.000101 -0.000138 0.000004 1.167114 -4.088706 -25.335204 1.989658 0.287933 10.192558 -0.033936 -0.001824 -0.172224 -4.321976 3.693098 5.056074 -0.000888 0.000035 -0.003709 -0.012249 -0.009363 -0.036416 0.143184 -0.019006 -11.498069 0.917530 -0.020778 6.784392 1.530291 -0.151053 -0.014733 -0.052408 1.540617 -5.471444 0.000078 -0.000112 -0.000056 -0.000052 -0.014928 0.015042 -0.008342 0.000150 0.012238 -1.358236 0.409829 -0.217201 4.630803 -0.692458 0.247578 3.912570 0.384486 -20.925963 -3.451295 -1.873367 20.031724 -3.207962 -0.975643 4.844459 -0.000582 -0.130194 3.174626 7.446949 1.278531 -1.144743 -3.074510 -0.038697 0.688097 -1.002535 -0.004123 -0.069893 -0.802188 0.160590 -0.479873 -0.804182 0.123486 -0.482642 -3.552863 -1.707594 20.499771 2.899527 -2.371097 6.291642 -0.001239 -0.031386 -0.766036 -8.638696 -2.083549 3.589020 4.960862 0.006871 -0.600853 2.691733 2.076474 -0.752314 0.036626 0.063819 2.451840 -0.000913 0.100574 2.451955 -0.000100 0.000012 0.000188 -0.078646 0.072371 -0.310893 1.001802 -0.954529 3.773486 -0.126582 1.503369 -6.994504 -0.000158 0.000004 0.000206 1.575992 0.281606 -4.546334 -1.614457 -1.251520 -7.205563 -3.002041 -4.940461 29.017362 -0.000029 0.000324 33.480057 -0.441787 -0.458728 -72.796129 -0.000060 -0.000072 -21.993998 0.000020 -0.000008 -0.026805 0.000002 -0.000016 0.012750 -0.000096 -0.000109 -34.639899 0.000036 0.000015 0.015168 0.000025 -0.000010 0.012721 -0.000048 -0.000055 -24.223455 0.000013 -0.000013 -0.000048 -0.000077 0.000044 0.000007 7.012412 1.751780 7.564552 -8.277014 -15.533133 1.371288 0.024185 -0.030004 11.786593 0.012323 -0.002720 0.003925 0.023218 -0.032306 11.715983 0.089451 -0.130631 0.175108 0.050264 0.015084 11.755997 -0.154133 0.027260 -0.044371 0.050130 0.014746 11.743147 0.646568 0.597925 -1.496397 -0.004512 -0.052570 11.750689 0.000071 -0.000033 11.750675 
0.000000 0.000000 0.000000 0.000008 0.000000 -0.000000 -0.000000 0.000000 -0.000000 0.000000 0.000000 -0.000006 0.014920 0.098143 0.098097 0.583196 -2.520482 22.733928 -1.429808 3.077450 23.664517 -0.384713 1.073357 21.224386 0.330990 -0.951651 11.663600 0.208209 -1.707972 6.561440 0.139336 -0.041623 10.463933 -6.236702 5.571235 -6.344941 0.751276 0.016163 -3.807228 0.011219 0.000641 -0.056867 6.234766 -4.467767 0.215577 0.000729 -0.000019 -0.003715 0.000101 -0.000137 0.000004 1.424071 -4.259362 -24.470217 1.716848 0.226841 8.777631 0.088612 0.005192 0.449536 -4.459364 3.707988 4.822604 -0.000888 0.000034 -0.003709 -0.012249 -0.009363 -0.036416 0.130442 -0.082048 -11.685805 0.917530 -0.020778 6.784389 1.530319 -0.151052 -0.014734 -0.056837 1.476643 -5.257397 0.000078 -0.000112 -0.000056 -0.000052 -0.014928 0.015041 -0.026989 -0.002829 0.018138 -1.322498 0.304376 -0.343987 4.542428 -0.707022 0.274175 3.282235 0.263563 -20.035180 -2.890353 -1.573483 18.582127 -3.400350 -0.732998 4.019691 0.003831 -0.229656 5.602204 7.452037 1.043072 -3.769116 -2.802623 -0.011376 0.106712 -1.002592 0.037480 -0.069386 -0.802215 0.160590 -0.479876 -0.804182 0.123486 -0.482642 -3.057262 -1.262309 19.220612 3.033226 -2.302688 6.117507 0.000545 0.019866 0.484240 -8.573246 -2.015986 3.059961 4.696551 0.018059 -0.961624 2.727515 2.129828 -0.755007 0.036654 0.063820 2.451840 -0.000913 0.100573 2.451954 0.046140 -0.001241 0.000388 -0.039798 0.072857 -0.302951 1.067103 -0.953840 3.809108 -0.017970 2.047685 -7.520579 0.080539 -0.026731 0.026596 1.683135 0.281038 -4.430406 -1.451160 -1.198300 -6.836784 -2.888274 -4.737610 28.200613 -0.000029 0.000324 33.480064 -0.441788 -0.458728 -72.796129 -0.000060 -0.000072 -21.993996 0.000020 -0.000008 -0.026805 0.000002 -0.000016 0.012749 -0.000096 -0.000109 -34.639902 0.000036 0.000015 0.015160 0.000025 -0.000010 0.012718 -0.000048 -0.000055 -24.223459 0.000013 -0.000013 -0.000051 0.047352 -0.017377 0.106695 6.831772 1.461328 8.016293 -8.008867 -15.759881 1.175547 0.024204 -0.029996 11.786616 0.023730 -0.003451 0.011643 0.023232 -0.032297 11.715958 0.145950 0.009859 -0.718323 0.050278 0.015106 11.756001 -0.268632 -0.139566 -0.931004 0.050142 0.014769 11.743134 0.646727 0.598303 -1.372356 -0.004494 -0.052591 11.750683 0.000072 -0.000033 11.750676 
0.000000 0.000000 0.000000 0.000008 0.000000 -0.000000 -0.000000 0.000000 -0.000000 0.000000 0.000000 -0.000006 0.014980 0.221168 0.217613 0.586002 -2.484492 22.767100 -1.441385 3.106543 23.697249 -0.289113 0.846108 21.250706 0.342860 -1.027253 11.486490 0.211903 -1.841012 6.356056 0.138782 -0.072662 10.564412 -6.291710 5.436587 -5.301468 1.010598 0.010153 -5.121233 -0.006661 -0.000336 0.033829 6.036439 -4.424400 0.173555 0.000729 -0.000019 -0.003715 0.000101 -0.000139 0.000004 1.736405 -4.486034 -23.405846 1.389844 0.162854 7.090970 0.226786 0.014702 1.151062 -4.614191 3.746669 4.557138 -0.000888 0.000034 -0.003709 -0.012249 -0.009362 -0.036416 0.107218 -0.183676 -11.924785 0.917530 -0.020778 6.784391 1.530345 -0.151052 -0.014733 -0.070612 1.383101 -4.868731 0.000078 -0.000112 -0.000056 -0.000052 -0.014928 0.015042 -0.080976 -0.011510 0.034992 -1.220162 0.022394 -0.684243 4.455766 -0.721326 0.300215 2.793091 0.180602 -19.052456 -2.411910 -1.432131 16.629777 -3.831216 -0.318972 2.818098 0.017936 -0.375149 9.166770 7.549645 0.637241 -8.056466 -2.327492 0.029133 -0.952139 -1.002841 0.078160 -0.068915 -0.802242 0.160590 -0.479877 -0.804182 0.123485 -0.482641 -2.685284 -0.875343 17.616808 3.179970 -2.187014 5.950559 0.001210 0.079939 1.948908 -8.390824 -1.971383 2.600409 4.279677 0.045035 -1.526836 2.762687 2.182087 -0.757703 0.036681 0.063820 2.451840 -0.000913 0.100574 2.451955 0.173591 -0.004924 0.001040 0.087962 0.084187 -0.305425 1.239122 -0.931432 3.847566 -0.121228 2.553363 -7.974330 0.299410 -0.098349 0.098354 1.908714 0.277825 -4.107862 -1.291363 -1.145101 -6.475329 -2.805569 -4.269246 26.939181 -0.000029 0.000325 33.480064 -0.441787 -0.458728 -72.796108 -0.000060 -0.000072 -21.993996 0.000020 -0.000008 -0.026803 0.000002 -0.000016 0.012747 -0.000096 -0.000109 -34.639902 0.000036 0.000015 0.015163 0.000025 -0.000010 0.012716 -0.000048 -0.000055 -24.223450 0.000013 -0.000013 -0.000048 0.176459 -0.063696 0.395978 6.656908 1.175124 8.458314 -7.690448 -15.975339 0.965196 0.024219 -0.029997 11.786638 0.110788 -0.006273 0.069844 0.023248 -0.032291 11.715935 0.225183 0.205430 -1.993155 0.050291 0.015130 11.756008 -0.428584 -0.353503 -2.200268 0.050155 0.014792 11.743128 0.646887 0.598682 -1.238377 -0.004477 -0.052611 11.750702 0.000071 -0.000033 11.750674 
0.000000 0.000000 0.000000 0.000008 0.000000 -0.000000 -0.000000 0.000000 -0.000000 0.000000 0.000000 -0.000006 0.020850 0.354022 0.350417 0.590576 -2.425597 22.821516 -1.461944 3.155248 23.748802 -0.135984 0.489393 21.291402 0.355897 -1.149518 11.198906 0.215152 -1.975381 6.148620 0.134982 -0.093438 10.679859 -6.353881 5.273004 -4.071797 1.306572 -0.003989 -6.622211 -0.017946 -0.000966 0.091084 5.794803 -4.384547 0.121558 0.000729 -0.000019 -0.003715 0.000101 -0.000138 0.000004 2.105285 -4.763489 -22.151859 1.014772 0.101660 5.166792 0.378752 0.027128 1.923327 -4.806319 3.780847 4.244049 -0.000888 0.000033 -0.003709 -0.012249 -0.009362 -0.036416 0.070843 -0.319157 -12.222232 0.917530 -0.020778 6.784390 1.530399 -0.151050 -0.014734 -0.086015 1.256962 -4.328958 0.000078 -0.000112 -0.000056 -0.000052 -0.014927 0.015042 -0.181451 -0.027697 0.066424 -1.065813 -0.416509 -1.217908 4.368259 -0.735835 0.326511 2.408893 0.130400 -17.986941 -2.006428 -1.415405 14.260247 -4.471344 0.221172 1.647355 0.043587 -0.532433 13.053140 7.683117 0.129477 -13.291731 -1.698143 0.066366 -2.343081 -1.002659 0.119481 -0.068401 -0.802296 0.160590 -0.479883 -0.804182 0.123485 -0.482643 -2.403118 -0.539256 15.736916 3.337292 -2.019850 5.809910 0.000183 0.145544 3.548562 -8.106094 -1.945663 2.206826 3.729164 0.083637 -2.276582 2.798083 2.234860 -0.760434 0.036736 0.063820 2.451839 -0.000914 0.100574 2.451955 0.376782 -0.011158 0.002604 0.286574 0.100821 -0.300565 1.412833 -0.908694 3.886351 -0.415747 3.041055 -8.370526 0.641449 -0.207683 0.210299 2.283294 0.273500 -3.619724 -0.845541 -0.999555 -5.414787 -2.723467 -3.543044 25.296910 -0.000029 0.000324 33.480064 -0.441788 -0.458728 -72.796102 -0.000060 -0.000072 -21.993995 0.000020 -0.000008 -0.026805 0.000002 -0.000016 0.012747 -0.000096 -0.000109 -34.639899 0.000036 0.000015 0.015168 0.000025 -0.000010 0.012718 -0.000048 -0.000054 -24.223454 0.000013 -0.000013 -0.000046 0.378567 -0.132894 0.847711 6.115691 0.402270 9.374850 -7.368326 -16.194696 0.755277 0.024250 -0.029984 11.786674 0.294432 -0.000134 0.189316 0.023276 -0.032292 11.715891 0.328797 0.455607 -3.634370 0.050315 0.015178 11.756016 -0.631926 -0.617272 -3.837981 0.050178 0.014841 11.743119 0.647057 0.599086 -1.103066 -0.004442 -0.052653 11.750706 0.000072 -0.000034 11.750677 
0.000000 0.000000 0.000000 0.000008 0.000000 -0.000000 -0.000000 0.000000 -0.000000 0.000000 0.000000 -0.000006 0.024565 0.507491 0.503726 0.596375 -2.342907 22.896551 -1.487654 3.221470 23.823229 0.063867 0.008047 21.351848 0.376117 -1.315334 10.808601 0.213007 -2.377254 5.531091 0.131265 -0.110875 10.814178 -6.420878 5.090723 -2.680896 1.630112 -0.028358 -8.265660 -0.020118 -0.001088 0.102096 5.511850 -4.351432 0.063802 0.000729 -0.000018 -0.003715 0.000101 -0.000137 0.000004 2.523264 -5.079218 -20.741148 0.601991 0.049147 3.059515 0.538700 0.042439 2.737118 -5.027105 3.833094 3.891248 -0.000887 0.000035 -0.003709 -0.012249 -0.009364 -0.036416 0.031089 -0.477292 -12.561931 0.917530 -0.020778 6.784391 1.530505 -0.151075 -0.014741 -0.105329 1.104556 -3.666177 0.000078 -0.000112 -0.000056 -0.000052 -0.014928 0.015041 -0.301538 -0.047115 0.103906 -0.873550 -0.989700 -1.910421 4.279899 -0.750521 0.353038 2.119817 0.107284 -16.861538 -1.679769 -1.506151 11.596716 -5.267013 0.833007 0.768038 0.076439 -0.674859 16.617767 7.823428 -0.427351 -18.742869 -0.968320 0.092642 -3.892734 -1.002933 0.161346 -0.067910 -0.802404 0.160590 -0.479877 -0.804182 0.123485 -0.482640 -2.201314 -0.244676 13.684873 3.500660 -1.814170 5.720368 -0.002764 0.212625 5.185602 -7.752009 -1.944287 1.871119 3.078446 0.136578 -3.161232 2.833758 2.288214 -0.763180 0.036843 0.063821 2.451839 -0.000913 0.100574 2.451955 0.648302 -0.019994 0.005646 0.555917 0.124559 -0.299105 1.714912 -0.859985 3.917244 -0.873022 3.504078 -8.709888 1.088181 -0.345712 0.356087 2.741134 0.265594 -2.976031 -0.398193 -0.844199 -4.345074 -2.597878 -2.580889 23.362613 -0.000029 0.000325 33.480068 -0.441788 -0.458728 -72.796115 -0.000060 -0.000072 -21.994001 0.000020 -0.000008 -0.026803 0.000002 -0.000016 0.012747 -0.000096 -0.000108 -34.639895 0.000036 0.000015 0.015163 0.000025 -0.000010 0.012718 -0.000048 -0.000054 -24.223455 0.000013 -0.000013 -0.000050 0.644707 -0.218163 1.436566 5.579501 -0.390989 10.295766 -6.911100 -16.380045 0.503088 0.024320 -0.029969 11.786758 0.480279 0.006441 0.310212 0.023334 -0.032273 11.715802 0.462608 0.749364 -5.597697 0.050364 0.015272 11.756024 -0.879675 -0.918761 -5.795906 0.050227 0.014935 11.743102 0.647079 0.599138 -0.950121 -0.004373 -0.052735 11.750706 0.000071 -0.000033 11.750671 
